<?xml version="1.0" encoding="utf-8"?>
<!-- Generator: Adobe Illustrator 23.0.2, SVG Export Plug-In . SVG Version: 6.00 Build 0)  -->
<svg version="1.1" xmlns="http://www.w3.org/2000/svg" xmlns:xlink="http://www.w3.org/1999/xlink" x="0px" y="0px"
	 viewBox="0 0 1500 1500" style="enable-background:new 0 0 1500 1500;" xml:space="preserve">
<style type="text/css">
	.st0{display:none;}
	.st1{display:inline;fill:#2B3A42;stroke:#000000;stroke-width:5;}
	.st2{fill:#3F5865;}
	.st3{font-family:'BebasNeue-Regular';}
	.st4{font-size:603.8323px;}
	.st5{fill:none;stroke:#FFFFFF;stroke-width:5;}
	.st6{fill:#E64C3C;}
</style>
<g id="Layer_4" class="st0">
	<rect x="-161.34" y="-57.17" class="st1" width="1810.72" height="1626.89"/>
</g>
<g id="Layer_3">
</g>
<g id="Layer_2">
	<g>
		<text transform="matrix(1 0 0 1 376.8901 1028.2665)" class="st2 st3 st4">Radly</text>
		<text transform="matrix(1 0 0 1 376.8901 1028.2665)" class="st5 st3 st4">Radly</text>
	</g>
</g>
<g id="Layer_3_copy">
	<g>
		<g>
			<path class="st6" d="M415.24,484.82h-86.93v543.45h-99.63V484.82H124.52c-70.8,0-55.6,52.42-55.6,52.42
				c3.46,12.19,34.2,63.26,50.52,92.12l34.3-18.11l-14.52,80.04l-87.43-23.96L92.45,644c-27.79-37.92-56.83-69.51-83.06-115.43
				c-26.4-56.85,7.52-99.12,44.39-117.62c0,0,30.19-16.7,70.74-16.7h293.81h13.35c70.8,0,55.6-52.42,55.6-52.42
				c-3.46-12.19-34.2-63.26-50.52-92.12l-34.3,18.11l14.52-80.04l87.43,23.96l-40.66,23.32c27.79,37.92,56.83,69.51,83.06,115.43
				c26.4,56.85-7.52,99.12-44.39,117.62c0,0-30.19,16.7-70.74,16.7H415.24z"/>
		</g>
		<g>
			<path class="st5" d="M415.24,484.82h-86.93v543.45h-99.63V484.82H124.52c-70.8,0-55.6,52.42-55.6,52.42
				c3.46,12.19,34.2,63.26,50.52,92.12l34.3-18.11l-14.52,80.04l-87.43-23.96L92.45,644c-27.79-37.92-56.83-69.51-83.06-115.43
				c-26.4-56.85,7.52-99.12,44.39-117.62c0,0,30.19-16.7,70.74-16.7h293.81h13.35c70.8,0,55.6-52.42,55.6-52.42
				c-3.46-12.19-34.2-63.26-50.52-92.12l-34.3,18.11l14.52-80.04l87.43,23.96l-40.66,23.32c27.79,37.92,56.83,69.51,83.06,115.43
				c26.4,56.85-7.52,99.12-44.39,117.62c0,0-30.19,16.7-70.74,16.7H415.24z"/>
		</g>
	</g>
</g>
</svg>
