<?xml version="1.0" encoding="utf-8"?>
<!-- Generator: Adobe Illustrator 23.0.2, SVG Export Plug-In . SVG Version: 6.00 Build 0)  -->
<svg version="1.1" xmlns="http://www.w3.org/2000/svg" xmlns:xlink="http://www.w3.org/1999/xlink" x="0px" y="0px"
	 viewBox="0 0 1500 1500" style="enable-background:new 0 0 1500 1500;" xml:space="preserve">
<style type="text/css">
	.st0{display:none;}
	.st1{display:inline;fill:#2B3A42;stroke:#000000;stroke-width:5;}
	.st2{fill:#305567;}
	.st3{font-family:'BebasNeue-Regular';}
	.st4{font-size:584.9122px;}
	.st5{fill:none;stroke:#FFFFFF;stroke-width:5;}
	.st6{fill:#E64C3C;}
	.st7{fill:#FFCC3F;}
</style>
<g id="Layer_4" class="st0">
	<rect x="-161.34" y="-57.17" class="st1" width="1810.72" height="1626.89"/>
</g>
<g id="Layer_3">
</g>
<g id="Layer_2">
	<g>
		<text transform="matrix(1 0 0 1 389.613 1087.1993)" class="st2 st3 st4">Radly</text>
		<text transform="matrix(1 0 0 1 389.613 1087.1993)" class="st5 st3 st4">Radly</text>
	</g>
</g>
<g id="Layer_3_copy">
	<g>
		<g>
			<path class="st6" d="M426.76,560.78h-84.21v526.42h-96.51V560.78h-100.9c-68.58,0-53.86,50.78-53.86,50.78
				c3.35,11.8,33.13,61.28,48.93,89.23l33.23-17.55l-14.06,77.53l-84.69-23.21l39.39-22.59c-26.92-36.74-55.05-67.34-80.46-111.82
				c-25.57-55.07,7.28-96.01,43-113.93c0,0,29.25-16.18,68.52-16.18h284.6h12.93c68.58,0,53.86-50.78,53.86-50.78
				c-3.35-11.8-33.13-61.28-48.93-89.23l-33.23,17.55l14.06-77.53l84.69,23.21l-39.39,22.59c26.92,36.74,55.05,67.34,80.46,111.82
				c25.57,55.07-7.28,96.01-43,113.93c0,0-29.25,16.18-68.52,16.18H426.76z"/>
		</g>
		<g>
			<path class="st7" d="M426.76,560.78h-84.21v526.42h-96.51V560.78h-100.9c-68.58,0-53.86,50.78-53.86,50.78
				c3.35,11.8,33.13,61.28,48.93,89.23l33.23-17.55l-14.06,77.53l-84.69-23.21l39.39-22.59c-26.92-36.74-55.05-67.34-80.46-111.82
				c-25.57-55.07,7.28-96.01,43-113.93c0,0,29.25-16.18,68.52-16.18h284.6h12.93c68.58,0,53.86-50.78,53.86-50.78
				c-3.35-11.8-33.13-61.28-48.93-89.23l-33.23,17.55l14.06-77.53l84.69,23.21l-39.39,22.59c26.92,36.74,55.05,67.34,80.46,111.82
				c25.57,55.07-7.28,96.01-43,113.93c0,0-29.25,16.18-68.52,16.18H426.76z"/>
		</g>
		<g>
			<path class="st5" d="M426.76,560.78h-84.21v526.42h-96.51V560.78h-100.9c-68.58,0-53.86,50.78-53.86,50.78
				c3.35,11.8,33.13,61.28,48.93,89.23l33.23-17.55l-14.06,77.53l-84.69-23.21l39.39-22.59c-26.92-36.74-55.05-67.34-80.46-111.82
				c-25.57-55.07,7.28-96.01,43-113.93c0,0,29.25-16.18,68.52-16.18h284.6h12.93c68.58,0,53.86-50.78,53.86-50.78
				c-3.35-11.8-33.13-61.28-48.93-89.23l-33.23,17.55l14.06-77.53l84.69,23.21l-39.39,22.59c26.92,36.74,55.05,67.34,80.46,111.82
				c25.57,55.07-7.28,96.01-43,113.93c0,0-29.25,16.18-68.52,16.18H426.76z"/>
		</g>
	</g>
</g>
</svg>
